# xmcd CD database file
# Copyright (C) 1997 Ti Kan
#
# Track frame offsets:
#  150
#  14645
#  32635
#  46823
#  59860
#  71573
#  87185
#  101010
#  113898
#  129033
#  140780
#  150313
#
# Disc length: 2209 seconds
#
# Revision: 1
# Processed by: cddbd v1.4b41PL1 Copyright (c) Steve Scherf et al.
# Submitted via: CDWizzard Release:4.23
#
DISCID=a1089f0c
DTITLE=Alisa Jones - Hammered Dulcimer Hymns
DYEAR=1900
DGENRE=
TTITLE0=Pass Me Not, O Gentle Savior
TTITLE1=Faith of Our Fathers
TTITLE2=There is a Fountain
TTITLE3=Fairest Lord Jesus
TTITLE4=Rock of Ages
TTITLE5=Blessed Assurance
TTITLE6=I Will Arise and Go to Jesus
TTITLE7=Where We'll Never Grow Old
TTITLE8=The Church's One Foundation
TTITLE9=Are You Washed in the Blood
TTITLE10=Stand Up, Satnd Up for Jesus
TTITLE11=Sweet Hour of Prayer
EXTD=
EXTT0=
EXTT1=
EXTT2=
EXTT3=
EXTT4=
EXTT5=
EXTT6=
EXTT7=
EXTT8=
EXTT9=
EXTT10=
EXTT11=
PLAYORDER=
